<mxfile host="app.diagrams.net" modified="2023-09-23T23:14:31.760Z" agent="Mozilla/5.0 (Macintosh; Intel Mac OS X 10_15_7) AppleWebKit/537.36 (KHTML, like Gecko) Chrome/116.0.0.0 Safari/537.36" etag="3H8vHqG2eb-UGjrzAmEx" version="21.6.3" type="device">
  <diagram name="PÃ¡gina-1" id="2dU7jyt3rvkQe2n9o3C-">
    <mxGraphModel dx="682" dy="406" grid="1" gridSize="10" guides="1" tooltips="1" connect="1" arrows="1" fold="1" page="1" pageScale="1" pageWidth="827" pageHeight="1169" math="0" shadow="0">
      <root>
        <mxCell id="0" />
        <mxCell id="1" parent="0" />
        <mxCell id="bz1fZlVNv711vby1nkzO-1" value="" style="whiteSpace=wrap;html=1;aspect=fixed;" vertex="1" parent="1">
          <mxGeometry x="262.5" y="223" width="197.5" height="197.5" as="geometry" />
        </mxCell>
        <mxCell id="bz1fZlVNv711vby1nkzO-2" value="Estudiante" style="text;html=1;strokeColor=none;fillColor=none;align=center;verticalAlign=middle;whiteSpace=wrap;rounded=0;" vertex="1" parent="1">
          <mxGeometry x="270" y="220" width="60" height="30" as="geometry" />
        </mxCell>
        <mxCell id="bz1fZlVNv711vby1nkzO-3" value="nombre" style="text;html=1;strokeColor=none;fillColor=none;align=center;verticalAlign=middle;whiteSpace=wrap;rounded=0;" vertex="1" parent="1">
          <mxGeometry x="262.5" y="270" width="60" height="30" as="geometry" />
        </mxCell>
        <mxCell id="bz1fZlVNv711vby1nkzO-6" value="edad" style="text;html=1;strokeColor=none;fillColor=none;align=center;verticalAlign=middle;whiteSpace=wrap;rounded=0;" vertex="1" parent="1">
          <mxGeometry x="257.5" y="310" width="60" height="30" as="geometry" />
        </mxCell>
        <mxCell id="bz1fZlVNv711vby1nkzO-7" value="genero" style="text;html=1;strokeColor=none;fillColor=none;align=center;verticalAlign=middle;whiteSpace=wrap;rounded=0;" vertex="1" parent="1">
          <mxGeometry x="262.5" y="330" width="60" height="30" as="geometry" />
        </mxCell>
        <mxCell id="bz1fZlVNv711vby1nkzO-8" value="nroDocumento" style="text;html=1;strokeColor=none;fillColor=none;align=center;verticalAlign=middle;whiteSpace=wrap;rounded=0;" vertex="1" parent="1">
          <mxGeometry x="282.5" y="350" width="60" height="30" as="geometry" />
        </mxCell>
        <mxCell id="bz1fZlVNv711vby1nkzO-9" value="ciudad" style="text;html=1;strokeColor=none;fillColor=none;align=center;verticalAlign=middle;whiteSpace=wrap;rounded=0;" vertex="1" parent="1">
          <mxGeometry x="262.5" y="370" width="60" height="30" as="geometry" />
        </mxCell>
        <mxCell id="bz1fZlVNv711vby1nkzO-10" value="nroLibreta" style="text;html=1;strokeColor=none;fillColor=none;align=center;verticalAlign=middle;whiteSpace=wrap;rounded=0;" vertex="1" parent="1">
          <mxGeometry x="270" y="390" width="60" height="30" as="geometry" />
        </mxCell>
        <mxCell id="bz1fZlVNv711vby1nkzO-14" value="apellido" style="text;html=1;strokeColor=none;fillColor=none;align=center;verticalAlign=middle;whiteSpace=wrap;rounded=0;" vertex="1" parent="1">
          <mxGeometry x="262.5" y="290" width="60" height="30" as="geometry" />
        </mxCell>
        <mxCell id="bz1fZlVNv711vby1nkzO-16" value="" style="endArrow=none;html=1;rounded=0;exitX=-0.007;exitY=0.105;exitDx=0;exitDy=0;exitPerimeter=0;entryX=0.994;entryY=0.105;entryDx=0;entryDy=0;entryPerimeter=0;" edge="1" parent="1" source="bz1fZlVNv711vby1nkzO-1" target="bz1fZlVNv711vby1nkzO-1">
          <mxGeometry width="50" height="50" relative="1" as="geometry">
            <mxPoint x="390" y="380" as="sourcePoint" />
            <mxPoint x="440" y="330" as="targetPoint" />
          </mxGeometry>
        </mxCell>
        <mxCell id="bz1fZlVNv711vby1nkzO-17" value="idEstudiante" style="text;html=1;strokeColor=none;fillColor=none;align=center;verticalAlign=middle;whiteSpace=wrap;rounded=0;" vertex="1" parent="1">
          <mxGeometry x="275" y="250" width="60" height="30" as="geometry" />
        </mxCell>
        <mxCell id="bz1fZlVNv711vby1nkzO-18" value="" style="whiteSpace=wrap;html=1;aspect=fixed;" vertex="1" parent="1">
          <mxGeometry x="570" y="190" width="100" height="100" as="geometry" />
        </mxCell>
        <mxCell id="bz1fZlVNv711vby1nkzO-19" value="Carrera" style="text;html=1;strokeColor=none;fillColor=none;align=center;verticalAlign=middle;whiteSpace=wrap;rounded=0;" vertex="1" parent="1">
          <mxGeometry x="570" y="190" width="60" height="30" as="geometry" />
        </mxCell>
        <mxCell id="bz1fZlVNv711vby1nkzO-20" value="" style="endArrow=none;html=1;rounded=0;exitX=-0.007;exitY=0.105;exitDx=0;exitDy=0;exitPerimeter=0;" edge="1" parent="1">
          <mxGeometry width="50" height="50" relative="1" as="geometry">
            <mxPoint x="570" y="219.6" as="sourcePoint" />
            <mxPoint x="670" y="220" as="targetPoint" />
          </mxGeometry>
        </mxCell>
        <mxCell id="bz1fZlVNv711vby1nkzO-36" style="edgeStyle=orthogonalEdgeStyle;rounded=0;orthogonalLoop=1;jettySize=auto;html=1;exitX=0;exitY=0.5;exitDx=0;exitDy=0;" edge="1" parent="1" source="bz1fZlVNv711vby1nkzO-22">
          <mxGeometry relative="1" as="geometry">
            <mxPoint x="560" y="410" as="targetPoint" />
            <Array as="points">
              <mxPoint x="531" y="235" />
              <mxPoint x="531" y="410" />
              <mxPoint x="560" y="410" />
            </Array>
          </mxGeometry>
        </mxCell>
        <mxCell id="bz1fZlVNv711vby1nkzO-22" value="idCarrera" style="text;html=1;strokeColor=none;fillColor=none;align=center;verticalAlign=middle;whiteSpace=wrap;rounded=0;" vertex="1" parent="1">
          <mxGeometry x="575" y="220" width="60" height="30" as="geometry" />
        </mxCell>
        <mxCell id="bz1fZlVNv711vby1nkzO-23" value="nombreCarrera" style="text;html=1;strokeColor=none;fillColor=none;align=center;verticalAlign=middle;whiteSpace=wrap;rounded=0;" vertex="1" parent="1">
          <mxGeometry x="590" y="240" width="60" height="30" as="geometry" />
        </mxCell>
        <mxCell id="bz1fZlVNv711vby1nkzO-25" value="" style="whiteSpace=wrap;html=1;aspect=fixed;" vertex="1" parent="1">
          <mxGeometry x="570" y="340" width="170" height="170" as="geometry" />
        </mxCell>
        <mxCell id="bz1fZlVNv711vby1nkzO-26" value="Estudiante-Carrera" style="text;html=1;strokeColor=none;fillColor=none;align=center;verticalAlign=middle;whiteSpace=wrap;rounded=0;" vertex="1" parent="1">
          <mxGeometry x="570" y="340" width="130" height="30" as="geometry" />
        </mxCell>
        <mxCell id="bz1fZlVNv711vby1nkzO-27" value="" style="endArrow=none;html=1;rounded=0;exitX=-0.007;exitY=0.105;exitDx=0;exitDy=0;exitPerimeter=0;" edge="1" parent="1">
          <mxGeometry width="50" height="50" relative="1" as="geometry">
            <mxPoint x="570" y="374.71" as="sourcePoint" />
            <mxPoint x="740" y="375" as="targetPoint" />
          </mxGeometry>
        </mxCell>
        <mxCell id="bz1fZlVNv711vby1nkzO-28" value="idEstudiante" style="text;html=1;strokeColor=none;fillColor=none;align=center;verticalAlign=middle;whiteSpace=wrap;rounded=0;" vertex="1" parent="1">
          <mxGeometry x="590" y="377" width="60" height="30" as="geometry" />
        </mxCell>
        <mxCell id="bz1fZlVNv711vby1nkzO-29" value="idCarrera" style="text;html=1;strokeColor=none;fillColor=none;align=center;verticalAlign=middle;whiteSpace=wrap;rounded=0;" vertex="1" parent="1">
          <mxGeometry x="582" y="393" width="60" height="30" as="geometry" />
        </mxCell>
        <mxCell id="bz1fZlVNv711vby1nkzO-32" value="antiguedad" style="text;html=1;strokeColor=none;fillColor=none;align=center;verticalAlign=middle;whiteSpace=wrap;rounded=0;" vertex="1" parent="1">
          <mxGeometry x="586" y="410" width="60" height="30" as="geometry" />
        </mxCell>
        <mxCell id="bz1fZlVNv711vby1nkzO-33" value="graduado" style="text;html=1;strokeColor=none;fillColor=none;align=center;verticalAlign=middle;whiteSpace=wrap;rounded=0;" vertex="1" parent="1">
          <mxGeometry x="583" y="426" width="60" height="30" as="geometry" />
        </mxCell>
        <mxCell id="bz1fZlVNv711vby1nkzO-35" value="" style="endArrow=classic;html=1;rounded=0;exitX=1.005;exitY=0.183;exitDx=0;exitDy=0;exitPerimeter=0;entryX=-0.01;entryY=0.309;entryDx=0;entryDy=0;entryPerimeter=0;" edge="1" parent="1" source="bz1fZlVNv711vby1nkzO-1" target="bz1fZlVNv711vby1nkzO-25">
          <mxGeometry width="50" height="50" relative="1" as="geometry">
            <mxPoint x="550" y="400" as="sourcePoint" />
            <mxPoint x="600" y="350" as="targetPoint" />
            <Array as="points">
              <mxPoint x="490" y="259" />
              <mxPoint x="490" y="393" />
            </Array>
          </mxGeometry>
        </mxCell>
      </root>
    </mxGraphModel>
  </diagram>
</mxfile>
